<svg xmlns="http://www.w3.org/2000/svg" xmlns:xlink="http://www.w3.org/1999/xlink" width="1477.201" height="436.801" viewBox="0 0 1477.201 436.801"><defs><pattern id="a" width="1" height="1" viewBox="0 310.747 1477.201 436.801"><image preserveAspectRatio="xMidYMid slice" width="1477.201" height="1083.773" xlink:href="header-image.png"/></pattern></defs><path d="M768.1,1019.6Q727,975.8,727,891.8V798.2q0-81.6,41.1-126.6t113.7-45q72.6,0,113.7,45t41.1,126.6v93.6q0,84-41.1,127.8t-113.7,43.8Q809.2,1063.4,768.1,1019.6ZM847,706.1a65.316,65.316,0,0,0-23.4,20.1,85.576,85.576,0,0,0-13.2,30,158.191,158.191,0,0,0-4.2,37.2V896.6a189.852,189.852,0,0,0,3.6,38.4q3.6,17.4,12.6,30a60.166,60.166,0,0,0,23.4,19.5q14.4,6.9,36,6.9t36-6.9A60.179,60.179,0,0,0,941.2,965q9-12.6,12.6-30a189.918,189.918,0,0,0,3.6-38.4V793.4a158.191,158.191,0,0,0-4.2-37.2,85.56,85.56,0,0,0-13.2-30,65.309,65.309,0,0,0-23.4-20.1q-14.4-7.5-34.8-7.5T847,706.1ZM1744,1055l-20.4-90H1580.8l-20.4,90h-82.8l100.2-420h148.8l100.2,420ZM1597.6,889.4h108.6l-48.6-214.8h-10.8Zm-405,165.6-94.8-420h81.6l82.2,380.4h10.8L1354.6,635h81.6l-94.8,420Zm-703.8,0L439.6,674.6H428.8V1055H349.6V635H504.4l49.2,380.4h10.8V635h79.2v420Z" transform="translate(-349.6 -626.6)" fill="url(#a)"/></svg>